<svg version="1.1" id="Layer_1" xmlns="http://www.w3.org/2000/svg" xmlns:xlink="http://www.w3.org/1999/xlink" x="0px" y="0px"
     viewBox="0 0 700 149.5" style="enable-background:new 0 0 700 149.5;" xml:space="preserve">
<style type="text/css">
	.st0{fill:#0C131F;}
	.st1{fill:#FFFFFF;}
</style>
    <g>
	    <g>
		    <g>
                <path class="st0" d="M0,122V27.4c0-1.8,0.1-3.6,0.5-5.3s0.9-3.5,1.6-5.1s1.5-3.2,2.5-4.8S6.8,9.3,8,8c1.3-1.3,2.7-2.4,4.2-3.4
                    s3.1-1.9,4.8-2.5c1.7-0.7,3.4-1.2,5.1-1.6C23.9,0.1,25.6,0,27.4,0h100.2c1.8,0,3.6,0.1,5.3,0.5c1.8,0.4,3.5,0.9,5.1,1.6
                    s3.2,1.5,4.8,2.5s2.9,2.2,4.2,3.4c1.3,1.3,2.4,2.7,3.4,4.2s1.9,3.1,2.5,4.8c0.7,1.7,1.2,3.4,1.6,5.1c0.4,1.8,0.5,3.5,0.5,5.3V122
                    c0,1.8-0.1,3.6-0.5,5.3c-0.4,1.8-0.9,3.5-1.6,5.1c-0.7,1.7-1.5,3.2-2.5,4.8s-2.2,2.9-3.4,4.2c-1.3,1.3-2.7,2.4-4.2,3.4
                    s-3.1,1.9-4.8,2.5c-1.7,0.7-3.4,1.2-5.1,1.6c-1.8,0.4-3.5,0.5-5.3,0.5H27.5c-1.8,0-3.6-0.1-5.3-0.5c-1.8-0.4-3.5-0.9-5.1-1.6
                    c-1.7-0.7-3.2-1.5-4.8-2.5s-2.9-2.2-4.2-3.4c-1.3-1.3-2.4-2.7-3.4-4.2s-1.9-3.1-2.5-4.8c-0.7-1.7-1.2-3.4-1.6-5.1
                    C0.2,125.7,0,123.9,0,122z"/>
                <path class="st1" d="M54.9,109.6c-3.8,0-7.3-0.4-10.4-1c-3.1-0.6-5.7-1.5-7.9-2.5c-0.6-0.3-0.8-0.9-0.8-1.7V92.2
                    c0-0.3,0.1-0.4,0.3-0.6c0.1-0.1,0.4-0.1,0.6,0.1c2.9,1.8,5.9,3.1,9.1,4c3.2,0.9,6.3,1.3,9.4,1.3c3.9,0,6.7-0.6,8.4-1.8
                    c1.7-1.2,2.5-2.7,2.5-4.5c0-1.2-0.3-2.2-0.8-3.1c-0.6-0.9-1.5-1.8-2.9-2.7c-1.4-0.9-3.2-1.8-5.6-2.7l-5.1-2.2
                    c-4.2-1.8-7.4-3.7-9.8-5.7c-2.4-2-4-4.2-4.8-6.5c-0.9-2.3-1.4-4.8-1.4-7.5c0-3.7,0.9-7.1,2.7-10c1.9-3,4.5-5.4,8.2-7.1
                    c3.6-1.7,8.2-2.6,13.6-2.6c3.2,0,6.3,0.2,9.2,0.6c2.8,0.4,5.1,1.1,6.8,1.9c0.5,0.3,0.7,0.7,0.7,1.3V56c0,0.1-0.1,0.3-0.3,0.4
                    c-0.1,0.1-0.4,0.1-0.6-0.1c-2-1.1-4.5-1.9-7.1-2.6c-2.7-0.4-5.6-0.7-8.5-0.7c-1.9,0-3.7,0.1-5,0.5c-1.4,0.4-2.5,0.8-3.3,1.3
                    s-1.5,1.2-1.9,1.9c-0.4,0.8-0.6,1.6-0.6,2.4c0,1.1,0.3,2.1,0.9,2.9c0.6,0.9,1.7,1.7,3.1,2.6c1.4,0.9,3.4,1.9,5.9,3l3.8,1.4
                    c4.5,1.9,8,3.8,10.5,5.9c2.5,2.1,4.3,4.3,5.3,6.8s1.5,5,1.5,7.9c0,4-1.1,7.6-3.2,10.6c-2.2,3-5.1,5.4-8.9,7
                    S60.1,109.6,54.9,109.6z"/>
                <path class="st1" d="M115.2,98.5v8.4c0,0.7-0.3,1.2-0.8,1.3c-1.3,0.4-2.7,0.7-4.1,1s-3.1,0.4-4.9,0.4c-4.5,0-7.9-1.2-10.5-3.5
                    c-2.5-2.3-3.8-6.1-3.8-11.2V69.6H85c-0.6,0-0.8-0.3-0.8-0.9V58.5c0-0.6,0.3-0.8,0.9-0.8h6.1c0.1-1.2,0.1-2.5,0.3-4
                    c0.1-1.5,0.2-3.1,0.4-4.6c0.1-1.5,0.3-2.8,0.4-3.8c0.1-0.2,0.1-0.4,0.3-0.6c0.1-0.1,0.3-0.3,0.5-0.4l12.2-1.5
                    c0.2-0.1,0.4-0.1,0.5,0c0.1,0.1,0.2,0.3,0.2,0.6c-0.1,1.6-0.2,3.7-0.3,6.4c-0.1,2.7-0.1,5.3-0.2,7.9h9.5c0.4,0,0.6,0.3,0.6,0.8
                    v10.4c0,0.4-0.1,0.6-0.5,0.7h-9.7v21.9c0,2.3,0.4,4,1.2,5c0.8,1,2.2,1.5,4.3,1.5c0.6,0,1.2,0,1.7-0.1c0.6,0,1.1-0.1,1.7-0.1
                    c0.2-0.1,0.4-0.1,0.6,0.1C115.1,98,115.2,98.2,115.2,98.5z"/>
		    </g>
            <g>
                <path class="st0" d="M213.2,79.6h15.1c-0.3-1.3-0.8-2.7-1.4-4.3c-0.6-1.6-1-3.3-1.6-5.1s-1.1-3.6-1.7-5.5
                    c-0.6-1.8-1.1-3.6-1.6-5.2c-0.6-1.7-0.9-3.2-1.3-4.6h-0.1c-0.6,2.2-1.3,4.7-2,7.5c-0.9,3-1.7,5.9-2.7,8.9
                    C215,74.2,214.1,77,213.2,79.6z M232,91.5h-22.2l-4.7,14.2c-0.1,0.6-0.6,0.8-1.1,0.8h-11c-0.7,0-0.9-0.3-0.8-0.9l19.2-55.4
                    c0.2-0.6,0.3-1.1,0.6-1.9c0.2-0.8,0.3-2,0.3-4c0-0.5,0.2-0.7,0.6-0.7h15.4c0.5,0,0.7,0.2,0.8,0.6l21.8,61.6
                    c0.2,0.6,0,0.9-0.5,0.9h-12.5c-0.6,0-0.9-0.2-1-0.7L232,91.5z"/>
                <path class="st0" d="M283.9,95.5V69.5c-0.5-0.2-1-0.3-1.6-0.3c-0.7-0.1-1.3-0.1-1.9-0.1c-2.4,0-4.7,0.5-6.8,1.5
                    c-2,1-3.8,2.5-5,4.4s-1.9,4.4-1.9,7.5c0,2.4,0.3,4.4,0.9,6.1c0.7,1.7,1.6,3.2,2.7,4.2c1.1,1.1,2.5,1.9,4,2.5
                    c1.6,0.6,3.2,0.8,5.1,0.8c0.8,0,1.6,0,2.4-0.1C282.5,96,283.2,95.7,283.9,95.5z M277.9,107.6c-4.8,0-9-0.9-12.9-2.7
                    c-3.9-1.8-6.8-4.6-9-8.1c-2.2-3.6-3.3-8.2-3.3-13.7c0-4.7,1.1-8.9,3.3-12.6c2.2-3.9,5.3-6.8,9.6-9.2c4.2-2.3,9.2-3.4,15-3.4
                    c0.5,0,0.9,0,1.4,0c0.5,0,1,0.1,1.8,0.1V39.1c0-0.5,0.2-0.7,0.7-0.7h12.1c0.3,0,0.6,0.2,0.6,0.6v56.8c0,1.1,0,2.3,0.1,3.6
                    c0.1,1.4,0.1,2.5,0.3,3.4c0,0.5-0.2,0.7-0.7,0.9c-3.3,1.4-6.6,2.4-9.8,3C284,107.2,280.9,107.6,277.9,107.6z"/>
                <path class="st0" d="M328.2,69c-1.8,0-3.5,0.6-5,1.6c-1.5,1-2.6,2.6-3.5,4.7c-0.9,2-1.3,4.4-1.3,7.4c0,2.8,0.5,5.2,1.3,7.3
                    c0.8,2,2,3.6,3.6,4.8s3.4,1.7,5.6,1.7c1.8,0,3.5-0.6,5-1.6c1.5-1,2.7-2.6,3.5-4.7s1.3-4.6,1.3-7.5c0-2.6-0.3-4.9-1-6.9
                    c-0.7-2-1.8-3.8-3.3-5C332.8,69.6,330.7,69,328.2,69z M328.8,57.9c3.9,0,7.3,0.7,10.2,2c2.8,1.4,5.3,3.2,7.3,5.5
                    c1.9,2.3,3.5,4.9,4.4,7.9c1,3,1.5,6,1.5,9.3c0,5-1,9.3-3.1,13.1c-2,3.8-4.8,6.7-8.3,8.8c-3.5,2.2-7.6,3.2-12.3,3.2
                    c-4.1,0-7.6-0.7-10.6-2.2c-3-1.4-5.5-3.3-7.4-5.7c-1.9-2.4-3.4-5-4.3-8c-0.9-3-1.5-5.9-1.5-9.1c0-4.6,1-8.6,3-12.4
                    c1.9-3.8,4.7-6.7,8.3-9C319.7,59,323.9,57.9,328.8,57.9z"/>
                <path class="st0" d="M390.8,82c0-2.8-0.6-5.2-1.6-7.2c-1-1.9-2.4-3.3-4.2-4.2c-1.8-0.9-3.9-1.4-6-1.4c-1.6,0-2.7,0.1-3.5,0.2
                    c-0.8,0.1-1.5,0.3-2.2,0.6v26.1c0.6,0.1,1.1,0.2,1.8,0.3c0.6,0.1,1.3,0.1,1.8,0.1c2.5,0,4.8-0.6,6.8-1.6c2-1,3.8-2.6,5.1-4.7
                    C390.1,88,390.8,85.3,390.8,82z M360.6,38.4h11.7c0.7,0,0.9,0.2,0.9,0.8v19.7c1.3-0.3,2.6-0.6,4-0.8c1.4-0.2,2.7-0.3,4.1-0.3
                    c4.8,0,8.9,1,12.3,3.1c3.4,2,6,4.8,8,8.2c1.9,3.4,2.8,7.3,2.8,11.6c0,4.4-0.8,8.4-2.4,11.7c-1.6,3.4-3.8,6.1-6.5,8.3
                    c-2.7,2.2-5.8,3.9-9.3,5c-3.4,1.1-6.9,1.7-10.6,1.7c-2.6,0-5.1-0.2-7.6-0.6c-2.5-0.3-5-0.9-7.4-1.7c-0.3-0.1-0.6-0.5-0.6-0.9
                    V39.1C360,38.6,360.2,38.4,360.6,38.4z"/>
                <path class="st0" d="M423.3,76.9H436c1.6,0,2.7,0,3.4,0c0.7,0,1.3-0.1,1.4-0.1c0-0.1,0-0.2,0-0.3s0-0.2,0-0.3
                    c0-0.6-0.1-1.3-0.3-2.2c-0.2-0.8-0.7-1.7-1.4-2.5c-0.7-0.9-1.5-1.6-2.5-2.2c-1-0.6-2.4-0.8-4-0.8c-1.9,0-3.5,0.5-4.9,1.3
                    c-1.4,0.9-2.3,1.9-3,3.2C424,74.2,423.6,75.5,423.3,76.9z M442.2,86.2h-18.9c0.2,1.8,0.8,3.5,1.8,5c1,1.5,2.5,2.7,4.4,3.6
                    c1.9,0.9,4.6,1.4,7.6,1.4c2.2,0,4.2-0.2,6.1-0.6c1.9-0.3,3.9-0.9,5.7-1.7c0.3-0.2,0.6-0.1,0.6,0.5v9.1c0,0.3,0,0.6-0.1,0.7
                    c-0.1,0.1-0.2,0.3-0.6,0.5c-1.8,0.9-4,1.6-6.3,2c-2.3,0.5-5.1,0.7-8.4,0.7c-4.6,0-8.3-0.7-11.5-2.2c-3.1-1.4-5.6-3.3-7.5-5.6
                    c-1.9-2.4-3.3-5-4.2-7.9c-0.9-2.8-1.3-5.8-1.3-8.8c0-3.3,0.6-6.5,1.6-9.6c1-3.1,2.5-5.8,4.4-8.1c1.9-2.4,4.3-4.2,7.3-5.6
                    c2.8-1.4,6.3-2,10-2c3.6,0,6.7,0.6,9.3,1.8c2.6,1.3,4.7,2.8,6.4,5c1.6,2,2.8,4.3,3.5,6.7c0.7,2.4,1.1,4.9,1.1,7.2
                    c0,1.5,0,2.7-0.1,4c-0.1,1.3-0.2,1.9-0.3,2.5c-0.1,0.5-0.3,0.7-0.8,0.8c-0.5,0.1-1.1,0.1-2,0.2c-0.9,0.1-2,0.1-3.4,0.1
                    C445.4,86.2,443.9,86.2,442.2,86.2z"/>
                <path class="st0" d="M497.2,107.6c-3.5,0-6.7-0.3-9.7-0.9c-3-0.6-5.3-1.5-7.4-2.5c-0.5-0.2-0.7-0.8-0.7-1.6V91.1
                    c0-0.2,0.1-0.5,0.2-0.6c0.1-0.1,0.3-0.1,0.6,0c2.7,1.7,5.6,3,8.5,3.8c3,0.8,5.9,1.3,8.9,1.3c3.6,0,6.3-0.6,7.9-1.7
                    s2.4-2.5,2.4-4.2c0-1-0.2-1.9-0.8-2.8s-1.5-1.7-2.7-2.6c-1.3-0.9-3-1.7-5.2-2.6l-4.8-2c-3.9-1.7-6.9-3.4-9.2-5.3
                    c-2.2-1.9-3.8-3.9-4.7-6.1c-0.9-2.2-1.3-4.6-1.3-7.1c0-3.4,0.9-6.6,2.6-9.4c1.7-2.8,4.3-5,7.7-6.7s7.6-2.5,12.7-2.5
                    c3,0,5.8,0.2,8.5,0.6c2.7,0.3,4.8,1,6.5,1.9c0.3,0.2,0.6,0.7,0.6,1.3v10.8c0,0.2-0.1,0.3-0.2,0.6c-0.1,0.1-0.3,0.1-0.6,0
                    c-1.9-1.1-4.2-1.9-6.7-2.4c-2.6-0.6-5.2-0.8-8.1-0.8c-1.8,0-3.3,0.1-4.7,0.5c-1.3,0.3-2.3,0.7-3.1,1.3c-0.8,0.6-1.4,1.1-1.7,1.8
                    s-0.6,1.5-0.6,2.2c0,1,0.2,1.9,0.8,2.7c0.6,0.8,1.5,1.6,2.8,2.5c1.4,0.8,3.2,1.7,5.6,2.7l3.5,1.5c4.3,1.7,7.6,3.6,9.9,5.6
                    c2.4,1.9,4,4.1,5,6.4c0.9,2.3,1.5,4.7,1.5,7.2c0,3.9-1,7.2-3,10s-4.8,5-8.3,6.6C506.5,106.8,502.2,107.6,497.2,107.6z"/>
                <path class="st0" d="M552.8,97v8c0,0.7-0.2,1.1-0.7,1.3c-1.4,0.5-2.7,0.8-4,1c-1.4,0.2-2.8,0.3-4.6,0.3c-4.2,0-7.5-1.1-9.8-3.3
                    c-2.3-2.2-3.4-5.7-3.4-10.5V69.9h-5.8c-0.6-0.1-0.8-0.3-0.8-0.9v-9.4c0-0.6,0.3-0.9,0.9-0.9h5.8c0.1-1.1,0.1-2.4,0.2-3.9
                    c0.1-1.5,0.1-3,0.3-4.3c0.1-1.4,0.3-2.6,0.5-3.4c0.1-0.2,0.1-0.5,0.3-0.6c0.1-0.1,0.3-0.2,0.6-0.3l11.3-1.5
                    c0.2-0.1,0.5-0.1,0.6,0c0.1,0.1,0.2,0.2,0.2,0.6c-0.1,1.5-0.2,3.5-0.3,6c-0.1,2.5-0.2,5-0.2,7.4h9c0.6,0,0.8,0.2,0.8,0.8v9.7
                    c0,0.3-0.2,0.6-0.7,0.7h-9v20.6c0,2.2,0.3,3.6,1.1,4.7c0.7,1,2,1.5,4.1,1.5c0.6,0,1.1,0,1.6-0.1c0.5-0.1,1-0.1,1.6-0.3
                    c0.2,0,0.3,0,0.5,0.1C553,96.3,552.8,96.7,552.8,97z"/>
                <path class="st0" d="M580.1,69c-1.8,0-3.5,0.6-5,1.6c-1.5,1-2.6,2.6-3.5,4.7c-0.9,2-1.3,4.4-1.3,7.4c0,2.8,0.5,5.2,1.3,7.3
                    s2,3.6,3.6,4.8s3.4,1.7,5.6,1.7c1.8,0,3.5-0.6,5-1.6c1.5-1,2.7-2.6,3.5-4.7c0.8-2,1.3-4.6,1.3-7.5c0-2.6-0.3-4.9-1-6.9
                    c-0.7-2-1.8-3.8-3.3-5C584.7,69.6,582.6,69,580.1,69z M580.7,57.9c3.9,0,7.3,0.7,10.2,2c2.8,1.4,5.3,3.2,7.3,5.5
                    c1.9,2.3,3.5,4.9,4.4,7.9c1,3,1.5,6,1.5,9.3c0,5-1,9.3-3.1,13.1c-2,3.8-4.8,6.7-8.3,8.8c-3.5,2.2-7.6,3.2-12.3,3.2
                    c-4.1,0-7.6-0.7-10.6-2.2c-3-1.4-5.5-3.3-7.4-5.7c-1.9-2.4-3.4-5-4.3-8c-0.9-3-1.5-5.9-1.5-9.1c0-4.6,1-8.6,3-12.4s4.7-6.7,8.3-9
                    C571.6,59,575.8,57.9,580.7,57.9z"/>
                <path class="st0" d="M646.1,95.2v10c0,0.3-0.1,0.7-0.5,0.8c-1.6,0.7-3.2,1-5.1,1.3c-1.8,0.2-3.8,0.3-5.7,0.3
                    c-3.9,0-7.4-0.6-10.5-1.8c-3.1-1.3-5.8-3-8-5.2s-3.9-4.9-5.1-7.9c-1.1-3-1.8-6.3-1.8-9.8c0-4.8,1.1-9.1,3.4-12.9
                    c2.3-3.8,5.3-6.7,9.4-9c4.1-2.2,8.9-3.3,14.3-3.3c2.4,0,4.2,0.1,5.6,0.3c1.4,0.2,2.5,0.5,3.2,0.8c0.3,0.1,0.6,0.5,0.6,1l-0.1,9.9
                    c0,0.6-0.2,0.8-0.8,0.7c-0.9-0.3-2-0.7-3.4-0.9c-1.4-0.2-3-0.3-4.7-0.3c-2.7,0-5.1,0.5-7.2,1.5c-2,0.9-3.8,2.4-5,4.3
                    c-1.3,1.9-1.8,4.3-1.8,7.3c0,3.3,0.7,5.9,2.2,7.9c1.4,1.9,3.2,3.3,5.5,4.2c2.2,0.8,4.4,1.3,6.6,1.3c1.7,0,3.3-0.1,4.7-0.2
                    c1.4-0.1,2.5-0.3,3.3-0.6C645.8,94.6,646.1,94.7,646.1,95.2z"/>
                <path class="st0" d="M667.2,39.3v66.3c0,0.7-0.3,0.9-0.9,0.9h-11.6c-0.7,0-0.9-0.3-0.9-0.9V39.2c0-0.2,0.1-0.3,0.2-0.6
                    c0.1-0.1,0.3-0.2,0.8-0.2h11.5C666.8,38.4,667.2,38.7,667.2,39.3z M684.5,58.8h12.4c0.3,0,0.6,0.1,0.7,0.3c0.1,0.2,0,0.5-0.1,0.7
                    c-0.7,0.8-1.6,1.8-2.7,3.1c-1.1,1.4-2.5,2.7-4,4.4c-1.5,1.6-3,3.3-4.4,4.9c-1.5,1.6-2.8,3.2-4.1,4.6c-1.3,1.4-2.3,2.5-3,3.3
                    c-0.1,0.1-0.1,0.1-0.1,0.2c0,0.1,0,0.1,0.1,0.2c1.4,1.7,3,3.6,4.7,5.9c1.7,2.2,3.5,4.4,5.5,6.7s3.8,4.6,5.6,6.7
                    c1.8,2.2,3.4,4.2,4.9,5.9c0.2,0.2,0.2,0.3,0.1,0.6c-0.1,0.2-0.3,0.3-0.6,0.3h-15.2c-0.3,0-0.6,0-0.7-0.1
                    c-0.1-0.1-0.3-0.2-0.6-0.6c-0.8-1.1-2-2.6-3.6-4.7c-1.6-2-3.3-4.3-5.2-6.7c-1.8-2.4-3.5-4.7-5.1-6.8c-1.6-2.2-2.8-3.8-3.8-4.9
                    c-0.2-0.3-0.5-0.7-0.5-0.9c-0.1-0.2,0.1-0.6,0.5-0.9c0.8-1,1.9-2.3,3.2-3.9c1.4-1.6,2.7-3.2,4.2-5s3-3.5,4.3-5.2
                    c1.4-1.7,2.6-3.2,3.8-4.6s1.8-2.3,2.3-2.8c0.2-0.3,0.5-0.6,0.6-0.6C683.9,58.9,684.1,58.8,684.5,58.8z"/>
		    </g>
	    </g>
    </g>
</svg>
